<?xml version="1.0" standalone="no"?>
<!DOCTYPE svg PUBLIC "-//W3C//DTD SVG 20010904//EN"
 "http://www.w3.org/TR/2001/REC-SVG-20010904/DTD/svg10.dtd">
<svg version="1.0" xmlns="http://www.w3.org/2000/svg"
 width="70pt" height="70pt" viewBox="0 0 533.000000 469.000000"
 preserveAspectRatio="xMidYMid meet">

<g transform="translate(0.000000,469.000000) scale(0.100000,-0.100000)"
fill="#ffffff" stroke="none">
<path d="M2556 4519 c-33 -17 -77 -49 -99 -70 l-39 -39 7 -80 c7 -76 6 -80
-13 -80 -25 0 -33 -30 -21 -73 5 -18 10 -61 11 -96 0 -61 -1 -65 -39 -102 -33
-33 -54 -44 -143 -68 -190 -54 -234 -68 -311 -105 -42 -20 -80 -36 -84 -36 -4
0 -35 -17 -69 -37 -33 -21 -73 -45 -87 -53 -205 -116 -470 -377 -618 -607 -80
-125 -199 -386 -215 -475 -6 -31 -12 -39 -39 -46 -35 -10 -191 -46 -272 -64
-67 -14 -294 -76 -304 -83 -19 -11 -60 -93 -81 -160 -18 -58 -21 -95 -22 -220
0 -166 11 -228 66 -369 57 -144 134 -240 236 -291 64 -32 104 -32 242 4 62 16
134 31 159 35 l46 5 27 -67 c55 -137 173 -349 228 -411 13 -14 28 -33 33 -42
29 -51 221 -248 313 -322 90 -72 109 -86 193 -137 248 -153 511 -243 819 -280
307 -37 682 28 995 173 90 42 140 71 249 143 33 21 69 46 82 54 76 51 364 333
364 357 0 6 7 16 16 24 16 13 144 203 144 214 0 3 18 37 40 76 22 39 40 75 40
80 0 10 33 91 49 119 12 21 71 15 209 -21 138 -36 178 -36 243 -4 130 66 219
201 285 430 13 45 17 99 18 220 0 179 -16 257 -73 347 -24 38 -38 49 -73 58
-24 6 -81 22 -128 34 -47 13 -107 29 -135 35 -70 15 -267 61 -287 67 -10 3
-19 20 -23 46 -4 23 -21 74 -37 112 -16 39 -35 87 -42 106 -8 20 -35 76 -62
125 -177 329 -432 589 -760 777 -127 74 -388 173 -543 207 -29 6 -57 22 -82
47 -37 36 -39 41 -39 99 0 33 5 77 11 98 13 46 4 77 -22 77 -15 0 -19 7 -19
34 0 19 4 46 10 61 21 55 -29 119 -135 174 -81 42 -139 42 -219 0z m14 -169
c60 -24 66 -24 51 -6 -10 12 -4 15 44 15 50 0 55 -2 43 -16 -11 -14 -10 -15
12 -8 14 4 40 14 59 21 42 18 51 10 57 -47 3 -24 10 -50 16 -57 16 -19 -10
-41 -56 -47 -20 -3 -46 -10 -57 -15 -14 -8 -19 -7 -19 2 0 8 -5 7 -16 -4 -13
-13 -15 -26 -9 -65 5 -27 10 -39 12 -28 8 38 13 46 25 39 7 -4 23 -9 36 -10
18 -2 21 0 13 10 -15 18 64 45 81 28 9 -9 9 -15 1 -23 -8 -8 -7 -20 3 -45 16
-39 11 -54 -34 -98 -27 -25 -35 -27 -73 -22 -45 6 -62 16 -41 23 32 12 6 21
-50 19 -78 -4 -76 -3 -52 -21 15 -11 16 -15 4 -15 -8 -1 -33 -3 -56 -6 -37 -5
-43 -2 -72 31 -32 35 -43 87 -22 100 5 3 7 20 3 37 -6 30 -5 31 23 23 16 -4
41 -8 57 -8 23 -2 25 -4 12 -13 -8 -6 -15 -14 -15 -18 0 -7 37 -2 46 7 13 12
24 -4 25 -36 1 -31 1 -31 9 -7 13 41 11 87 -5 100 -11 9 -15 9 -15 1 0 -8 -5
-9 -19 -1 -11 5 -36 12 -57 15 -52 6 -60 17 -46 63 15 50 15 65 0 56 -6 -4 -3
5 8 19 10 15 20 27 21 27 1 0 25 -9 53 -20z m198 -464 c10 -6 10 -11 2 -22
-10 -11 -17 -10 -40 8 -23 16 -38 20 -75 16 -25 -3 -55 -14 -65 -23 -19 -17
-20 -17 -27 1 -3 10 -2 19 3 21 5 2 29 14 54 27 l45 23 45 -21 c25 -12 51 -25
58 -30z m-392 -33 c9 -3 14 -20 14 -47 0 -23 6 -50 13 -61 8 -11 16 -27 19
-36 11 -29 -38 -10 -49 19 l-11 27 -1 -24 c-2 -37 -11 -19 -17 33 -7 50 7 160
14 118 2 -13 10 -26 18 -29z m612 -53 c1 -62 -15 -118 -18 -65 l-2 30 -9 -32
c-5 -18 -14 -33 -18 -33 -5 0 -17 -3 -26 -6 -15 -6 -14 -1 4 34 12 23 21 59
21 82 0 29 4 40 15 40 9 0 15 10 16 28 l1 27 8 -25 c4 -14 8 -50 8 -80z m-648
85 c0 -3 -16 -37 -35 -76 -40 -81 -43 -94 -15 -60 24 28 25 22 6 -23 -18 -42
-28 -49 -60 -36 -33 12 -34 42 -2 59 13 7 30 28 39 47 18 38 10 45 -18 14 -10
-11 -26 -22 -35 -25 -10 -3 -23 -19 -29 -36 -10 -29 -11 -30 -36 -13 -13 9
-22 20 -19 25 3 5 -7 9 -22 9 -22 0 -24 2 -14 15 20 24 96 63 137 70 21 3 49
13 63 20 27 15 40 18 40 10z m720 -21 c19 -7 42 -13 51 -14 21 0 103 -46 119
-65 10 -12 9 -15 -9 -15 -11 0 -21 -4 -21 -9 0 -5 -11 -16 -25 -25 -25 -17
-26 -16 -36 13 -6 17 -19 33 -29 36 -9 3 -25 14 -35 25 -28 31 -36 24 -18 -14
9 -19 26 -40 39 -47 33 -17 32 -55 -1 -63 -14 -4 -30 -4 -36 -1 -12 8 -41 76
-34 83 2 3 7 -3 11 -12 3 -9 10 -16 15 -16 4 0 -8 34 -27 76 -28 62 -31 75
-17 69 10 -4 34 -14 53 -21z m-861 -202 c26 -19 38 -33 30 -35 -54 -15 -131
-44 -171 -64 -52 -26 -68 -29 -50 -11 7 7 12 19 12 28 -1 9 -14 0 -35 -24 -27
-33 -36 -38 -48 -28 -28 24 -27 63 4 108 16 23 34 45 41 47 9 4 8 6 -3 6 -9 1
-30 -17 -49 -40 -18 -23 -35 -36 -39 -31 -11 19 -51 -24 -51 -55 0 -39 -35
-71 -80 -73 -58 -3 -57 -4 -50 47 8 53 52 102 74 84 9 -8 22 -1 47 25 19 20
43 40 54 44 11 5 76 8 145 6 123 -2 126 -3 169 -34z m1290 -7 c35 -33 50 -42
59 -33 16 16 72 -43 72 -75 0 -14 3 -32 6 -41 5 -13 -2 -16 -39 -16 -59 0 -97
29 -97 73 0 32 -31 64 -57 59 -6 -1 -24 13 -38 33 -15 19 -35 35 -44 35 -14
-1 -14 -2 1 -10 31 -19 62 -72 60 -104 -4 -42 -25 -64 -46 -46 -9 7 -16 18
-16 26 0 7 -9 18 -20 24 -23 12 -25 7 -9 -22 9 -17 9 -20 -2 -15 -8 3 -50 22
-94 41 -44 20 -89 36 -101 36 -36 0 -35 12 5 40 48 35 51 36 194 38 l119 1 47
-44z m-997 -40 c53 -6 61 -10 92 -48 51 -64 56 -79 56 -170 0 -78 -2 -85 -21
-90 -12 -3 -33 -1 -46 4 -14 5 -28 7 -31 5 -2 -3 7 -8 22 -12 14 -3 26 -11 26
-16 0 -6 -8 -7 -17 -3 -10 4 -44 11 -76 15 -31 5 -73 14 -93 20 -28 10 -38 9
-47 0 -9 -10 -9 -11 0 -6 6 3 29 0 50 -8 21 -8 58 -17 82 -19 58 -7 79 -27 27
-27 -25 0 -35 -4 -30 -11 5 -9 -23 -10 -103 -7 -134 5 -204 33 -247 98 -32 49
-32 57 1 92 l27 28 -52 0 -53 0 15 28 c8 15 25 33 38 39 13 6 43 27 66 47 42
34 47 36 119 36 52 0 72 3 67 11 -4 8 5 9 32 6 22 -3 65 -9 96 -12z m473 5
c-4 -6 21 -10 68 -10 68 0 77 -3 113 -31 22 -17 55 -42 75 -54 20 -13 39 -33
42 -44 5 -19 1 -21 -46 -21 l-51 0 27 -28 c15 -15 27 -35 27 -43 0 -33 -51
-88 -106 -115 -49 -24 -72 -28 -167 -32 -80 -3 -108 -2 -103 7 5 7 -5 11 -31
11 -38 1 -38 1 -13 15 14 8 39 14 56 15 17 0 48 7 68 15 20 9 42 13 49 9 9 -5
9 -4 1 5 -8 9 -27 8 -80 -5 -161 -37 -179 -38 -127 -10 32 18 26 21 -12 6 -18
-7 -33 -7 -46 0 -16 9 -19 22 -19 91 0 77 2 82 40 139 44 64 55 70 150 80 36
4 71 8 78 9 7 0 10 -3 7 -9z m-1008 -150 c14 -11 33 -20 42 -20 9 0 24 -7 34
-14 17 -13 17 -16 2 -46 -10 -20 -14 -42 -10 -61 6 -26 3 -31 -24 -40 -31 -11
-59 -45 -47 -57 3 -3 6 0 6 6 0 7 17 22 38 35 20 13 43 36 51 51 17 31 27 33
34 6 3 -11 2 -18 -2 -15 -5 2 -22 -27 -40 -65 -18 -40 -42 -77 -57 -87 -33
-21 -105 -21 -138 1 -19 12 -26 13 -27 4 0 -7 -7 1 -14 17 -25 53 -19 132 17
212 17 40 34 71 37 68 4 -2 17 3 31 11 33 18 38 17 67 -6z m1483 5 c17 -9 33
-15 37 -14 4 0 20 -28 35 -63 20 -47 27 -80 27 -128 1 -36 -3 -70 -7 -76 -4
-6 -28 -21 -54 -33 -35 -17 -56 -21 -80 -16 -56 12 -69 25 -105 101 -18 41
-38 72 -43 69 -4 -3 -6 4 -3 15 8 29 18 25 42 -15 11 -19 27 -35 35 -35 8 0
24 -12 36 -27 18 -23 22 -24 18 -8 -2 11 -20 29 -41 40 -34 18 -37 23 -33 48
3 17 -1 41 -10 59 -14 28 -14 31 3 44 10 7 25 14 33 14 8 0 29 9 45 20 36 24
30 23 65 5z m-1752 -34 c2 -14 -6 -33 -21 -50 -24 -25 -57 -105 -57 -137 0 -9
-11 -29 -25 -46 -36 -42 -33 -66 4 -36 15 13 27 26 25 30 -3 3 5 22 17 42 11
19 18 40 14 45 -9 16 20 63 60 94 35 28 71 33 69 9 -1 -6 -2 -33 -2 -58 -2
-40 -4 -45 -17 -34 -13 11 -15 5 -15 -43 0 -61 -9 -74 -40 -57 -26 14 -25 6 3
-31 19 -27 22 -43 23 -137 0 -67 5 -114 13 -127 12 -20 12 -20 7 0 -11 39 -9
151 2 170 6 11 12 16 12 10 1 -5 5 -29 9 -52 6 -33 5 -43 -5 -43 -10 0 -10 -7
2 -35 18 -44 18 -84 -1 -91 -8 -3 -29 3 -47 15 -18 11 -30 21 -26 21 3 0 -15
21 -42 48 -26 26 -57 65 -69 87 l-22 40 5 -55 c2 -30 19 -93 37 -140 18 -47
33 -102 33 -122 1 -30 3 -35 14 -25 10 8 13 27 10 65 l-5 53 23 -28 c14 -17
23 -42 24 -63 0 -19 3 -65 6 -101 l7 -66 -43 -7 c-23 -4 -45 -5 -47 -2 -7 6
-56 183 -83 296 -13 52 -28 98 -34 102 -6 4 -11 36 -11 75 0 54 6 80 30 130
16 34 33 61 38 60 5 -1 15 18 23 43 17 55 17 57 2 42 -33 -33 -37 1 -8 59 20
39 75 82 95 76 6 -2 12 -14 13 -26z m2003 14 c48 -25 105 -135 69 -135 -5 0
-10 5 -10 11 0 5 -4 8 -8 5 -5 -3 -2 -27 7 -54 9 -29 19 -45 23 -38 5 7 8 7 8
-3 0 -8 6 -22 14 -30 21 -25 46 -110 46 -160 0 -25 5 -63 11 -84 13 -49 -1
-144 -31 -216 -32 -72 -35 -58 -5 17 14 34 25 72 24 84 0 15 -8 3 -22 -32 -32
-81 -33 -36 -3 72 15 50 25 92 23 94 -11 11 -26 -24 -46 -111 -13 -55 -37
-144 -53 -199 l-29 -98 -31 6 c-17 3 -37 6 -44 6 -10 0 -14 14 -14 51 0 34 4
48 11 43 8 -5 9 8 4 45 -6 42 -3 56 15 86 12 19 23 35 25 35 2 0 1 -24 -2 -53
-4 -39 -2 -56 9 -65 13 -10 15 -5 16 33 0 25 5 51 10 58 20 25 62 167 61 209
l0 43 -17 -36 c-19 -40 -116 -150 -150 -168 -48 -25 -66 16 -38 84 8 19 11 35
5 35 -11 0 -11 46 0 75 8 19 8 19 20 -3 12 -22 8 -103 -6 -157 -4 -16 -3 -18
8 -7 10 9 13 45 14 126 0 104 2 117 24 147 l24 32 -26 -7 c-30 -7 -37 6 -37
70 0 33 -3 42 -14 38 -11 -4 -15 7 -17 45 -5 69 15 75 76 26 43 -36 62 -66 51
-83 -3 -5 3 -26 14 -47 11 -21 18 -41 16 -44 -2 -3 10 -16 25 -29 27 -22 29
-22 29 -5 0 11 -11 30 -25 43 -14 13 -25 34 -25 47 0 34 -30 105 -56 134 -23
24 -31 59 -17 72 9 9 10 9 44 -8z m-1641 -95 c-7 -17 -15 -28 -18 -26 -2 3 1
19 8 36 7 17 15 28 18 26 2 -3 -1 -19 -8 -36z m1250 -9 c0 -11 -4 -9 -15 5 -8
10 -15 25 -15 33 0 11 4 9 15 -5 8 -10 15 -25 15 -33z m-1804 -104 c-14 -28
-30 -72 -35 -97 -24 -106 -41 -210 -41 -244 0 -41 27 -145 41 -160 5 -6 9 -17
9 -26 0 -8 9 -33 21 -55 17 -32 20 -51 17 -109 -3 -44 0 -84 8 -106 16 -41 35
-136 35 -166 -1 -59 -14 -69 -108 -87 -135 -26 -126 -30 -158 69 -16 47 -33
87 -37 90 -4 3 -8 14 -8 25 0 17 -54 103 -86 136 -24 25 -88 63 -105 63 -24 0
-24 19 1 81 11 27 29 71 39 97 11 26 37 77 57 113 20 35 43 75 51 89 42 73 63
105 116 169 31 38 87 101 122 138 58 60 67 66 76 50 8 -13 4 -30 -15 -70z
m2428 -19 c135 -148 199 -238 284 -403 45 -86 102 -221 102 -239 0 -3 -9 -6
-20 -6 -40 0 -124 -67 -163 -130 -25 -41 -83 -178 -98 -232 -12 -45 -14 -45
-144 -20 l-89 17 -8 40 c-5 21 -6 46 -3 53 18 48 37 178 36 245 -1 53 3 86 13
105 67 120 96 270 67 345 -6 16 -11 43 -11 60 0 43 -34 160 -58 200 -19 31
-20 57 -2 57 5 0 47 -42 94 -92z m-1680 -9 c53 -25 80 -27 171 -17 l60 7 -45
-21 c-65 -30 -141 -29 -176 2 -23 21 -26 22 -20 6 7 -20 7 -20 -15 0 -11 10
-31 33 -42 49 -19 27 -19 29 -1 14 10 -10 41 -27 68 -40z m883 -7 c-26 -25
-36 -31 -31 -17 6 18 4 17 -20 -5 -35 -32 -110 -33 -176 -2 l-45 22 60 -8 c93
-11 126 -6 185 25 30 16 57 28 60 26 2 -2 -13 -20 -33 -41z m-413 -8 c9 -3 16
-12 16 -19 0 -11 59 -29 170 -51 19 -3 44 -13 55 -21 19 -14 19 -15 -5 -8 -23
6 -22 5 5 -13 17 -10 58 -32 92 -47 53 -25 60 -31 52 -47 -6 -12 -21 -18 -44
-18 -27 0 -39 7 -60 34 -24 32 -78 56 -92 42 -3 -3 9 -18 26 -33 l31 -29 -28
-33 c-25 -30 -34 -34 -103 -41 -42 -4 -81 -10 -87 -14 -6 -3 -22 -2 -37 4 -26
10 -26 11 -20 78 4 37 12 73 17 80 7 7 36 12 77 13 36 0 75 4 85 8 33 13 -64
34 -121 27 -65 -9 -89 -9 -151 -1 -60 9 -161 -13 -126 -26 10 -4 49 -8 85 -8
41 -1 70 -6 77 -13 5 -7 13 -43 17 -80 6 -66 6 -68 -19 -78 -17 -6 -35 -6 -52
0 -14 6 -46 10 -70 10 -53 0 -80 12 -111 49 l-21 26 30 28 c17 15 28 30 25 33
-14 14 -68 -10 -92 -42 -29 -38 -72 -46 -100 -17 -16 15 -10 19 74 59 50 24
91 46 91 50 0 3 -7 3 -16 0 -8 -3 -12 -2 -9 4 6 10 37 19 153 46 44 10 72 21
72 29 0 7 6 16 13 18 18 8 83 8 101 1z m615 -85 c14 -7 33 -14 41 -15 8 -1 42
-9 75 -17 l60 -14 -61 -7 c-89 -11 -133 16 -172 107 -19 45 -13 46 10 0 12
-22 33 -47 47 -54z m-1274 44 c-35 -83 -88 -112 -177 -96 l-47 8 64 15 c35 9
61 12 59 8 -9 -14 5 -9 40 14 19 13 42 37 50 55 22 45 30 42 11 -4z m96 -133
c2 -19 7 -41 12 -48 7 -9 5 -11 -7 -6 -11 4 -16 19 -16 52 0 52 7 54 11 2z
m1040 -16 l-9 -39 -1 50 c-1 33 2 46 9 39 7 -7 7 -24 1 -50z m-1351 -5 c0 -10
4 -19 10 -19 5 0 7 7 4 15 -5 12 -1 13 26 4 40 -15 45 -28 26 -74 -22 -53 -19
-68 3 -20 15 31 20 35 20 18 1 -12 -3 -24 -8 -28 -5 -3 -12 -18 -16 -34 -3
-16 -13 -35 -21 -42 -12 -9 -16 -6 -26 22 -10 29 -12 31 -19 13 -6 -14 -8 -11
-8 16 -1 19 -6 52 -12 74 -11 41 -5 91 11 81 6 -3 10 -15 10 -26z m1675 -33
c-15 -109 -22 -141 -25 -116 -2 23 -3 23 -12 -7 -6 -18 -15 -33 -20 -33 -10 0
-58 107 -57 129 0 9 9 -4 19 -29 23 -54 26 -40 5 21 -16 45 -15 49 28 67 23
10 27 9 28 -6 0 -10 4 -6 11 11 16 44 31 21 23 -37z m-212 21 c-3 -15 -14 -32
-25 -38 -18 -9 -18 -8 -8 10 6 12 8 21 4 21 -4 0 1 9 11 20 22 25 25 23 18
-13z m-1247 -5 c-3 -2 -1 -13 5 -23 12 -23 6 -24 -15 -3 -9 8 -16 25 -16 36 0
17 2 18 15 8 9 -7 13 -15 11 -18z m-540 -98 c30 -112 30 -147 -1 -69 -14 36
-24 51 -24 38 -1 -13 8 -46 19 -75 25 -67 19 -74 -9 -9 -16 37 -21 70 -21 132
0 45 3 80 6 77 3 -3 16 -46 30 -94z m737 43 c17 -12 53 -135 42 -145 -3 -3 -5
0 -5 6 0 7 -8 20 -17 30 -66 70 -71 77 -62 100 10 25 18 27 42 9z m868 -8 c11
-22 8 -27 -58 -98 -26 -27 -28 -19 -12 49 14 64 49 88 70 49z m-1114 -56 c10
-16 41 -56 70 -91 l53 -62 0 -78 c1 -42 5 -97 9 -121 6 -32 5 -53 -5 -78 -8
-19 -13 -37 -10 -41 2 -4 -2 -30 -8 -57 l-13 -50 -47 -3 c-43 -3 -49 0 -94 43
l-47 46 -1 187 c-1 131 2 191 10 202 7 8 20 41 30 73 9 31 21 57 26 57 5 0 17
-12 27 -27z m1375 -38 c10 -32 23 -64 28 -70 13 -15 17 -317 5 -360 -4 -16
-18 -41 -31 -55 -13 -14 -32 -36 -42 -49 -21 -28 -62 -22 -62 9 0 10 -18 53
-40 95 -42 82 -49 104 -38 121 4 6 10 59 14 118 7 104 8 107 44 149 20 23 46
57 59 75 13 18 28 31 34 29 7 -2 20 -30 29 -62z m-926 30 c18 -14 34 -21 36
-17 2 4 33 6 70 4 l66 -4 20 -45 19 -45 19 45 19 45 65 4 c36 2 67 -1 68 -5 2
-4 19 4 38 18 19 15 41 24 48 22 8 -3 24 -26 37 -51 l22 -45 -44 -40 c-53 -49
-91 -61 -186 -61 -71 0 -73 1 -80 28 l-7 27 -6 -25 c-5 -23 -11 -25 -65 -28
-101 -6 -142 5 -188 49 -23 21 -45 39 -49 39 -13 0 -9 16 18 64 14 25 31 46
36 46 6 0 26 -11 44 -25z m-158 -129 c-13 -15 -9 -63 5 -69 11 -4 41 -77 32
-77 -2 0 -10 -3 -18 -6 -10 -3 -23 8 -38 33 -12 21 -33 48 -45 61 -13 13 -21
29 -18 36 3 7 -2 19 -11 26 -8 7 -15 24 -15 37 0 22 2 24 15 13 13 -10 15 -9
15 10 0 21 3 20 43 -16 25 -23 40 -43 35 -48z m828 55 c11 9 14 7 14 -13 0
-13 -5 -29 -10 -34 -6 -6 -13 -21 -15 -35 -3 -13 -13 -31 -23 -39 -10 -8 -29
-32 -41 -52 -25 -42 -23 -40 -44 -32 -12 4 -13 12 -4 41 6 19 17 37 24 40 15
6 18 59 4 68 -6 3 9 23 32 45 37 35 42 37 45 19 3 -16 6 -18 18 -8z m-1317
-18 c31 -38 35 -68 21 -129 l-13 -54 -46 0 -46 0 3 92 c3 71 7 96 20 106 24
18 38 15 61 -15z m1773 15 c11 -10 17 -38 21 -106 l6 -93 -47 3 c-45 3 -46 4
-59 48 -16 53 -10 98 18 134 23 29 37 32 61 14z m-944 -140 c7 -7 12 -31 12
-55 0 -38 -3 -43 -26 -49 -44 -11 -159 3 -209 26 -40 18 -46 25 -43 48 4 33
26 39 159 41 62 1 99 -3 107 -11z m316 1 c2 -2 6 -16 9 -30 6 -24 2 -29 -44
-48 -54 -24 -169 -38 -213 -27 -22 5 -26 12 -26 42 0 19 5 45 11 56 11 20 18
20 135 16 68 -3 126 -7 128 -9z m-1352 -70 c5 -3 -3 -11 -17 -17 -25 -11 -25
-11 -25 30 l0 42 17 -24 c9 -14 21 -28 25 -31z m2168 11 c0 -37 -2 -40 -19
-30 -19 10 -19 11 -3 40 9 16 18 30 20 30 1 0 2 -18 2 -40z m-2162 -73 c-32
-12 -34 -31 -13 -91 11 -30 11 -36 1 -25 -14 15 -36 73 -36 95 0 7 12 17 28
22 37 14 54 13 20 -1z m2150 -6 c18 -11 6 -74 -19 -104 -18 -22 -18 -21 -4 18
18 50 19 82 3 88 -7 3 -8 6 -3 6 6 0 16 -3 23 -8z m-2848 -16 c0 -17 -54 -87
-73 -94 -57 -21 -77 -22 -77 -3 0 28 52 80 90 91 42 11 60 13 60 6z m3596 -16
c24 -8 64 -59 64 -81 0 -10 2 -10 9 1 7 10 15 -5 31 -55 36 -111 30 -322 -12
-467 -20 -67 -18 -32 3 69 17 82 20 122 16 234 -5 129 -21 215 -38 204 -4 -2
-29 1 -54 7 -37 9 -52 20 -75 55 -17 23 -30 46 -30 49 0 7 51 -2 86 -16z
m-3423 -35 c35 -28 56 -57 91 -127 25 -51 50 -112 55 -137 13 -56 13 -60 3
-60 -5 0 -15 19 -22 43 -7 23 -20 60 -30 82 -10 22 -22 51 -26 65 -7 26 -57
96 -84 117 -23 19 -75 15 -104 -8 -35 -27 -33 -18 5 26 17 19 39 35 48 35 10
0 38 -16 64 -36z m3274 4 c39 -38 44 -58 7 -29 -44 35 -81 28 -130 -25 -24
-25 -48 -62 -55 -82 -6 -21 -15 -41 -19 -47 -4 -5 -18 -40 -30 -77 -13 -38
-27 -68 -31 -68 -12 0 -11 8 6 68 17 56 72 175 95 207 25 34 90 85 107 85 10
0 32 -14 50 -32z m-3591 0 c4 -6 3 -8 -4 -4 -6 3 -18 -11 -29 -34 -18 -40 -51
-60 -100 -60 l-24 0 23 42 c19 35 31 44 68 54 59 16 58 16 66 2z m125 -40
c-30 -67 -44 -179 -36 -287 9 -126 66 -352 105 -414 17 -27 30 -53 30 -58 0
-5 19 -22 42 -39 22 -16 36 -30 31 -30 -19 0 -64 42 -98 93 -36 53 -84 184
-110 298 -13 55 -14 57 -10 17 l4 -46 -42 -8 c-23 -5 -48 -8 -55 -7 -11 1 -13
-10 -8 -45 5 -39 4 -43 -5 -22 -6 14 -17 54 -25 90 -13 63 -14 63 -9 13 l6
-52 -51 -15 c-28 -8 -57 -13 -64 -10 -33 13 -47 281 -20 379 7 28 11 37 9 20
-12 -75 -15 -225 -6 -280 8 -53 9 -47 5 50 -2 61 -1 134 3 164 l8 55 47 12
c26 6 49 10 51 8 2 -2 0 -36 -5 -76 -5 -39 -7 -79 -5 -87 1 -9 8 29 15 84 6
55 21 123 31 150 11 28 20 45 21 39 0 -6 -8 -31 -17 -55 -13 -35 -17 -77 -17
-199 1 -93 5 -167 12 -185 l12 -30 -5 30 c-11 68 -17 235 -11 287 l7 57 50 10
c63 14 59 14 60 -6 1 -10 5 0 10 21 10 41 50 129 56 122 2 -1 -6 -23 -16 -48z
m3774 30 c22 -10 61 -75 51 -85 -3 -3 -26 -2 -51 1 -42 7 -47 11 -71 58 l-26
51 37 -7 c20 -4 47 -12 60 -18z m-193 -75 c5 -24 14 -41 18 -38 5 3 31 0 58
-6 44 -9 50 -14 56 -41 16 -79 0 -329 -22 -349 -4 -4 -27 -1 -52 5 -44 11 -45
11 -43 51 l2 40 -10 -45 c-17 -85 -59 -215 -87 -268 -27 -55 -101 -132 -124
-132 -7 0 1 9 18 20 64 41 126 174 170 365 28 119 26 338 -3 420 -14 39 -16
53 -7 40 8 -11 20 -39 26 -62z m-3877 20 c-11 -32 -19 -39 -60 -50 -71 -21
-79 -15 -47 34 26 41 40 49 93 52 26 1 27 1 14 -36z m4193 31 c21 -4 39 -19
57 -46 15 -22 24 -42 21 -46 -3 -3 -31 1 -61 8 -44 11 -57 18 -61 37 -4 12
-10 21 -14 18 -5 -3 -6 4 -3 15 6 22 14 23 61 14z m-4330 -31 c-2 -5 -12 -24
-21 -44 -13 -31 -24 -38 -63 -48 -25 -7 -48 -10 -50 -9 -1 2 7 21 19 42 16 29
32 42 62 52 50 15 58 16 53 7z m4477 -9 c31 -5 40 -13 55 -48 11 -22 17 -42
16 -44 -2 -1 -25 3 -51 10 -30 8 -50 20 -53 30 -2 10 -9 15 -15 11 -6 -3 -7
-1 -3 5 4 6 2 21 -5 33 -10 19 -9 21 4 16 9 -3 32 -9 52 -13z m-4637 -64 c-16
-31 -27 -41 -54 -46 -19 -3 -37 -5 -39 -2 -2 2 5 18 15 36 20 32 48 50 81 51
15 1 14 -4 -3 -39z m4789 18 c8 -6 21 -24 29 -40 13 -26 13 -28 -3 -28 -40 0
-59 13 -80 52 l-23 40 32 -6 c17 -3 37 -11 45 -18z m-3182 -20 c15 -7 33 -24
41 -40 13 -26 13 -28 -13 -42 -24 -12 -29 -12 -40 3 -11 14 -12 13 -13 -7 0
-25 52 -108 71 -114 9 -3 9 -9 0 -26 -15 -28 -50 -28 -85 -1 -28 22 -48 21
-21 -1 8 -7 15 -21 15 -31 0 -28 -46 -24 -82 6 -37 32 -50 24 -18 -10 l23 -25
-30 0 c-19 0 -38 9 -53 25 -30 32 -45 32 -25 1 15 -23 15 -23 -10 -18 -23 4
-65 44 -65 62 0 4 39 10 87 14 50 4 90 12 94 18 11 17 10 17 -46 6 -49 -10
-145 -11 -154 -3 -7 7 21 124 33 141 9 11 45 20 122 30 95 12 133 18 141 23 1
0 14 -4 28 -11z m1670 -9 c137 -16 141 -18 159 -80 26 -87 23 -96 -31 -102
-27 -3 -55 -2 -63 3 -8 4 -34 10 -57 14 -35 5 -41 3 -37 -8 4 -10 31 -17 95
-22 49 -3 89 -10 89 -15 0 -15 -45 -57 -68 -64 l-24 -7 19 29 18 28 -33 -27
c-19 -16 -44 -28 -58 -28 -28 0 -30 7 -7 32 26 29 9 31 -25 3 -31 -26 -82 -34
-82 -12 0 7 7 23 16 35 19 27 10 28 -23 2 -33 -26 -67 -26 -79 1 -8 17 -3 28
28 61 27 30 38 50 38 72 -1 26 -2 28 -11 14 -8 -14 -14 -15 -34 -6 -14 6 -25
19 -25 28 0 32 50 73 80 65 8 -2 60 -9 115 -16z m1172 -1 c-3 -8 -6 -5 -6 6
-1 11 2 17 5 13 3 -3 4 -12 1 -19z m283 -13 c0 -5 -5 -3 -10 5 -5 8 -10 20
-10 25 0 6 5 3 10 -5 5 -8 10 -19 10 -25z m-287 -56 c5 -24 6 -100 4 -169 -4
-101 -3 -114 5 -70 5 30 8 108 5 173 -5 133 1 147 13 30 l8 -78 -1 73 c0 39 2
74 4 76 2 3 30 -2 62 -9 39 -9 57 -10 57 -2 0 5 3 8 6 5 3 -4 12 -55 20 -115
l13 -108 -4 98 c-3 53 -2 97 2 97 5 0 28 -6 53 -14 38 -11 46 -18 49 -42 l4
-29 7 30 c4 17 6 -12 5 -65 -3 -72 -2 -83 4 -45 7 46 8 42 8 -35 1 -56 -2 -76
-7 -60 l-8 25 0 -25 c-1 -14 3 -43 7 -65 7 -38 8 -35 16 39 4 43 5 117 2 164
l-5 84 31 -6 c17 -3 33 -9 36 -12 10 -10 13 -173 6 -282 l-7 -104 -32 4 c-17
3 -37 7 -44 9 -9 3 -21 -17 -36 -56 -22 -62 -45 -107 -46 -92 0 5 7 23 15 40
22 49 45 120 45 142 0 17 2 18 11 5 8 -12 9 -10 5 10 -3 14 -6 34 -7 45 0 11
-5 2 -10 -20 -15 -67 -13 -65 -66 -50 -26 7 -56 16 -65 20 -15 6 -18 2 -18
-19 0 -27 -60 -170 -68 -162 -2 3 10 38 26 79 17 41 34 94 36 118 4 30 3 36
-2 19 -9 -26 -16 -27 -91 -14 -32 5 -33 6 -27 42 4 20 9 73 11 117 2 44 2 67
-1 50 -2 -16 -9 -67 -15 -112 l-11 -81 -30 4 c-17 2 -46 9 -65 15 -29 9 -34
15 -29 33 16 58 27 210 22 283 l-7 81 48 -12 c46 -12 48 -14 56 -57z m-4442
33 c-6 -12 -11 -30 -11 -41 0 -19 2 -20 48 -6 56 17 75 19 67 5 -12 -20 -6
-235 9 -305 8 -38 14 -70 13 -71 -12 -9 -114 -31 -119 -26 -4 4 -12 32 -17 62
-5 30 -9 44 -10 30 -1 -14 -4 -36 -7 -50 -4 -20 -3 -22 5 -10 9 12 11 10 11
-12 0 -32 -28 -51 -68 -46 -26 3 -27 6 -35 83 -8 84 -6 290 4 299 3 3 19 9 37
12 l31 6 -6 -89 c-3 -49 -2 -121 2 -159 l8 -69 10 55 c5 30 7 102 4 160 -3 66
-2 94 4 75 6 -23 7 -17 3 22 -4 45 11 111 23 99 3 -2 0 -13 -6 -24z m254 -129
c0 -76 4 -166 9 -200 l8 -62 -33 -5 c-75 -13 -82 -12 -90 14 -4 14 -7 18 -8 9
-2 -33 57 -201 96 -274 9 -16 25 -41 37 -55 l21 -25 -26 23 c-14 12 -36 44
-48 70 -12 26 -27 55 -32 65 -25 45 -49 127 -51 172 -2 28 -7 53 -12 57 -5 3
-11 56 -14 116 -5 114 5 234 17 214 5 -8 20 -7 56 3 28 7 55 14 60 14 6 1 10
-51 10 -136z m4495 100 c0 -32 -5 -28 -14 10 -4 19 -3 26 4 22 5 -3 10 -18 10
-32z m-1855 -18 c99 -9 181 -18 183 -20 1 -1 -1 -10 -4 -20 -6 -14 -15 -16
-54 -11 -262 35 -1097 35 -1307 1 -35 -6 -43 -4 -52 13 -10 19 -6 20 105 32
305 33 805 35 1129 5z m-2100 -45 c3 -5 -3 -10 -15 -10 -31 0 -54 -61 -46
-126 7 -60 40 -139 63 -152 8 -5 11 -12 6 -15 -22 -13 -55 8 -81 52 -24 40
-27 56 -27 132 0 71 3 91 19 108 20 22 70 29 81 11z m3233 -35 c32 -94 -5
-243 -65 -266 -29 -11 -53 -1 -29 13 45 25 82 195 54 248 -8 14 -24 26 -36 28
-37 6 -13 23 26 20 33 -3 38 -7 50 -43z m-2802 -42 c-4 -4 -203 -47 -316 -68
-41 -7 -83 -17 -92 -20 -10 -4 -18 -3 -18 3 0 6 -2 17 -5 24 -7 16 88 42 290
78 66 12 122 24 125 26 2 3 8 -5 12 -17 5 -12 7 -24 4 -26z m2399 22 c136 -22
315 -65 315 -75 0 -36 -9 -36 -168 -4 -293 59 -270 52 -264 79 2 14 7 23 11
21 3 -2 51 -11 106 -21z m-3658 -102 c-2 -16 -4 -3 -4 27 0 30 2 43 4 28 2
-16 2 -40 0 -55z m992 -115 l-2 -103 -8 90 c-9 84 -7 115 6 115 3 0 4 -46 4
-102z m2829 -20 c-1 -68 -4 -101 -9 -83 -11 47 -10 195 1 195 5 0 9 -45 8
-112z m-1249 96 c33 -4 61 -10 61 -15 0 -4 -15 -34 -34 -66 -18 -32 -37 -69
-41 -82 -4 -13 -22 -49 -40 -80 -18 -31 -36 -67 -40 -80 -4 -13 -20 -46 -36
-73 -28 -47 -29 -54 -29 -178 l0 -130 -96 0 -96 0 4 128 3 127 48 101 c26 55
47 104 47 108 0 4 18 44 40 90 22 45 40 88 40 95 0 6 7 23 16 36 18 27 41 30
153 19z m-343 -81 c19 -43 38 -84 42 -92 9 -16 -34 -138 -68 -193 l-19 -32
-22 49 c-12 28 -29 61 -39 75 -45 66 -138 259 -127 264 7 2 54 5 105 5 l93 1
35 -77z m-446 -1 c0 -70 -4 -74 -112 -125 l-78 -36 0 31 0 30 -102 -7 c-57 -4
-110 -11 -118 -16 -13 -7 -12 -8 3 -9 16 0 17 -17 17 -220 0 -121 3 -220 6
-220 10 0 149 21 172 26 20 4 22 10 22 72 l0 67 -46 -4 c-41 -3 -45 -1 -41 15
3 11 11 42 17 71 l12 51 86 6 c48 4 104 9 125 11 l37 5 0 -199 0 -199 -82 -6
c-46 -4 -162 -18 -259 -32 -165 -24 -179 -25 -208 -10 l-31 17 0 314 0 315 38
24 c30 20 71 30 212 50 163 24 214 30 298 34 l32 2 0 -58z m1168 52 c51 -7 53
-8 89 -68 20 -34 44 -70 53 -81 9 -11 20 -29 24 -39 12 -36 81 -135 91 -132
13 3 120 151 139 191 8 17 25 40 38 52 23 22 26 22 116 11 l92 -12 0 -348 c0
-281 -3 -348 -13 -348 -14 0 -114 16 -154 25 -23 5 -23 7 -23 192 0 112 -4
183 -9 178 -8 -9 -73 -129 -108 -200 -8 -16 -18 -37 -24 -45 -5 -8 -18 -32
-29 -53 -12 -21 -24 -36 -28 -33 -4 2 -50 88 -102 191 l-95 187 -3 -188 -2
-187 -62 7 c-33 3 -78 6 -99 6 l-39 0 0 350 0 350 48 0 c26 0 71 -3 100 -6z
m-2621 -96 c-3 -8 -6 -5 -6 6 -1 11 2 17 5 13 3 -3 4 -12 1 -19z m4140 -10
c-3 -8 -6 -5 -6 6 -1 11 2 17 5 13 3 -3 4 -12 1 -19z m-3919 -169 c17 -36 44
-81 59 -100 27 -33 27 -33 4 -18 -31 19 -118 190 -126 244 l-6 40 19 -50 c11
-27 34 -80 50 -116z m3758 119 c-7 -42 -89 -209 -112 -229 -7 -5 10 34 36 88
27 54 55 117 62 140 16 55 22 55 14 1z m-3911 -113 c18 -38 48 -90 69 -113 49
-60 46 -65 -6 -10 -42 44 -109 178 -123 243 -4 24 -2 22 11 -10 9 -22 31 -71
49 -110z m-319 -10 c3 -11 -6 5 -20 36 -13 30 -27 68 -31 85 -6 29 42 -84 51
-121z m4344 35 c-48 -111 -63 -135 -92 -151 -21 -10 -20 -9 4 17 27 29 83 135
109 207 7 21 15 34 17 29 1 -5 -15 -51 -38 -102z m109 -98 c-13 -22 -32 -45
-44 -52 -20 -12 -19 -12 1 11 12 13 29 38 40 56 10 18 20 31 22 29 2 -3 -7
-22 -19 -44z m-4389 -46 c23 -30 24 -30 1 -11 -13 11 -29 33 -37 50 -8 18 -9
22 -2 11 7 -10 24 -33 38 -50z m4552 37 c-6 -10 -22 -29 -37 -43 -25 -22 -24
-20 6 21 34 46 50 57 31 22z m-232 -87 c0 -2 -8 -10 -17 -17 -16 -13 -17 -12
-4 4 13 16 21 21 21 13z m150 -21 c-7 -8 -17 -15 -23 -15 -6 0 -2 7 9 15 25
19 30 19 14 0z m-2568 -495 c33 0 36 -10 7 -28 -16 -10 -19 -19 -14 -39 5 -22
3 -24 -12 -18 -10 4 -22 7 -28 7 -5 0 -18 -3 -28 -7 -15 -6 -17 -4 -12 18 5
20 2 29 -14 39 -30 18 -26 28 10 28 23 0 32 5 37 22 l5 22 10 -22 c7 -15 19
-22 39 -22z m799 0 l32 0 -22 -24 c-16 -17 -21 -31 -16 -45 6 -19 4 -20 -18
-10 -18 8 -30 8 -45 0 -20 -10 -21 -10 -13 11 7 19 4 27 -18 45 l-26 22 33 1
c26 0 35 5 40 22 l5 22 8 -22 c6 -16 17 -22 40 -22z m-372 -52 l46 -3 -33 -20
c-34 -20 -37 -35 -16 -88 6 -18 5 -18 -33 1 -40 21 -40 21 -73 1 -18 -11 -34
-18 -36 -16 -2 2 3 20 11 40 l15 36 -37 26 -38 25 47 0 c47 0 47 1 60 41 l12
42 15 -41 c14 -39 17 -41 60 -44z m-752 -243 c54 -8 112 -16 130 -17 l32 -3
-59 -65 c-66 -72 -71 -94 -38 -148 28 -45 14 -41 -77 25 -54 39 -63 49 -46 51
43 7 14 98 -48 149 -32 28 -26 28 106 8z m820 -50 c20 -14 23 -14 31 2 8 13
12 1 17 -48 4 -36 5 -76 3 -90 -3 -23 -4 -23 -26 12 -28 47 -86 77 -109 57
-42 -35 -57 -151 -27 -213 17 -37 37 -49 65 -40 31 10 33 43 5 85 -14 22 -26
44 -26 48 0 8 171 24 178 17 2 -2 -6 -21 -17 -44 -15 -28 -21 -59 -21 -102 0
-54 -2 -60 -17 -54 -26 10 -24 10 -76 -14 -56 -26 -90 -22 -131 16 -89 82 -87
242 3 341 34 37 44 42 83 42 24 0 53 -7 65 -15z m641 -7 c7 -7 12 -25 12 -40
0 -20 5 -28 18 -28 13 -1 9 -7 -15 -28 -76 -64 -102 -82 -159 -113 -32 -18
-72 -41 -89 -51 -16 -10 -38 -18 -48 -18 -17 0 -17 2 -1 33 22 41 19 116 -5
140 -17 17 -18 17 -29 -5 -6 -13 -22 -79 -35 -148 -32 -162 -38 -176 -78 -185
-27 -6 -36 -3 -51 15 -24 30 -23 52 5 78 26 25 37 20 37 -15 0 -31 16 -30 24
2 4 17 -1 37 -19 65 -14 22 -25 44 -25 49 0 19 -43 96 -68 123 -14 15 -24 29
-21 31 12 11 334 56 337 47 2 -5 17 0 33 12 24 18 32 20 55 10 23 -11 28 -10
46 13 21 27 56 33 76 13z m-1194 -67 c72 -28 104 -166 50 -216 -35 -32 -74
-32 -114 1 -41 35 -60 74 -60 122 0 33 6 45 35 71 38 33 50 36 89 22z m176
-116 c0 -87 2 -95 19 -95 20 0 26 10 36 71 5 29 2 41 -19 66 -14 17 -26 34
-26 37 0 3 27 6 61 6 l61 0 -7 -92 c-6 -82 -4 -98 14 -132 11 -22 19 -41 18
-43 -2 -1 -27 0 -55 4 -43 5 -52 9 -52 26 0 19 -1 19 -20 2 -25 -23 -64 -13
-87 22 -13 19 -17 43 -14 94 1 47 -3 77 -14 98 l-16 31 51 0 50 0 0 -95z"/>
<path d="M2439 3343 c-13 -16 -12 -17 4 -4 9 7 17 15 17 17 0 8 -8 3 -21 -13z"/>
<path d="M2870 3363 c0 -6 8 -17 18 -24 16 -13 16 -13 2 6 -8 11 -16 22 -17
24 -2 2 -3 0 -3 -6z"/>
<path d="M1653 3046 c21 -6 42 -18 47 -26 8 -13 10 -12 10 3 0 19 -38 38 -73
36 -15 -1 -10 -5 16 -13z"/>
<path d="M3648 3048 c-16 -5 -28 -17 -28 -26 0 -14 2 -15 10 -2 5 8 26 20 47
26 21 7 29 12 18 12 -11 0 -32 -4 -47 -10z"/>
<path d="M834 2190 c0 -58 1 -81 3 -52 2 28 2 76 0 105 -2 28 -3 5 -3 -53z"/>
<path d="M693 2065 c0 -27 2 -38 4 -22 2 15 2 37 0 50 -2 12 -4 0 -4 -28z"/>
<path d="M4494 2210 c0 -58 1 -81 3 -52 2 28 2 76 0 105 -2 28 -3 5 -3 -53z"/>
<path d="M1652 2170 c0 -14 2 -19 5 -12 2 6 2 18 0 25 -3 6 -5 1 -5 -13z"/>
<path d="M1829 2144 c-12 -14 -11 -16 5 -13 11 2 21 10 24 17 5 17 -13 15 -29
-4z"/>
<path d="M3672 2175 c0 -16 2 -22 5 -12 2 9 2 23 0 30 -3 6 -5 -1 -5 -18z"/>
<path d="M3480 2145 c7 -8 17 -15 22 -15 6 0 5 7 -2 15 -7 8 -17 15 -22 15 -6
0 -5 -7 2 -15z"/>
<path d="M4904 2110 c0 -58 1 -81 3 -52 2 28 2 76 0 105 -2 28 -3 5 -3 -53z"/>
<path d="M4920 1990 c-2 -43 -17 -95 -19 -66 -1 11 -3 17 -6 14 -3 -3 -2 -23
3 -44 l9 -39 13 71 c7 39 10 77 7 85 -3 8 -6 -2 -7 -21z"/>
<path d="M423 2110 c0 -47 2 -66 4 -42 2 23 2 61 0 85 -2 23 -4 4 -4 -43z"/>
<path d="M2001 666 c-10 -11 -9 -21 2 -41 l14 -27 15 24 c13 19 13 27 3 41
-15 21 -19 21 -34 3z"/>
<path d="M3371 581 c-15 -27 -14 -66 3 -80 11 -9 15 -7 20 11 15 59 -2 110
-23 69z"/>
<path d="M3033 534 c-10 -21 -9 -32 4 -60 9 -19 20 -34 25 -34 13 0 9 84 -4
103 -12 15 -14 15 -25 -9z"/>
<path d="M3257 544 c-4 -4 -7 -29 -7 -56 0 -51 22 -76 41 -47 15 23 6 103 -11
107 -9 1 -19 0 -23 -4z"/>
<path d="M2204 505 c-34 -52 6 -159 44 -121 20 20 21 124 2 136 -22 14 -28 12
-46 -15z"/>
</g>
</svg>
